<svg width="24" height="24" viewBox="0 0 24 24" fill="none" xmlns="http://www.w3.org/2000/svg">
<g clip-path="url(#clip0_1_10)">
<path d="M20 0H4C1.79086 0 0 1.79086 0 4V20C0 22.2091 1.79086 24 4 24H20C22.2091 24 24 22.2091 24 20V4C24 1.79086 22.2091 0 20 0Z" fill="#B95C55"/>
<path fill-rule="evenodd" clip-rule="evenodd" d="M17.4435 6.30653C15.9666 4.82969 13.9636 4 11.875 4C9.78642 4 7.78338 4.82969 6.30653 6.30653C4.82969 7.78338 4 9.78642 4 11.875C4 13.9636 4.82969 15.9666 6.30653 17.4435C7.78338 18.9203 9.78642 19.75 11.875 19.75C13.9636 19.75 15.9666 18.9203 17.4435 17.4435C18.9203 15.9666 19.75 13.9636 19.75 11.875C19.75 9.78642 18.9203 7.78338 17.4435 6.30653ZM8 12.0501C7.9945 12.0848 7.99169 12.1201 7.99169 12.1557C7.99169 12.1913 7.9945 12.2266 8 12.2613V12.0501Z" fill="white"/>
<path d="M12 9V13" stroke="#B95C55" stroke-linecap="round"/>
<path d="M12.6 14.6C12.6 14.9314 12.3314 15.2 12 15.2C11.6686 15.2 11.4 14.9314 11.4 14.6C11.4 14.2686 11.6686 14 12 14C12.3314 14 12.6 14.2686 12.6 14.6Z" fill="#B95C55"/>
</g>
<defs>
<clipPath id="clip0_1_10">
<rect width="24" height="24" fill="white"/>
</clipPath>
</defs>
</svg>
